<svg width="117px" height="178px" viewBox="0 0 117 178" version="1.1" xmlns="http://www.w3.org/2000/svg" xmlns:xlink="http://www.w3.org/1999/xlink">
    <g id="页面-1" stroke="none" stroke-width="1" fill="none" fill-rule="evenodd">
        <g id="手机插画" transform="translate(-87.000000, -55.000000)" fill-rule="nonzero">
            <g id="编组-13" transform="translate(87.000000, 55.000000)">
                <g id="编组-10">
                    <path d="M78.9730485,1.57707463 C80.8972214,2.60613355 82.4073234,4.1162357 83.4363825,6.0404086 C84.4654412,7.96458149 85.013457,9.87317044 85.013457,15.1364406 C85.013457,56.5691874 85.013457,87.6437476 85.013457,108.360121 C85.013457,109.29237 76.6344695,112.318139 76.6344695,113.323332 C76.6344695,115.641872 71.4255793,117.642329 67.7916946,122.719043 C64.535335,127.268336 63.8386122,135.592601 64.1441012,139.953637 C64.3896275,143.458669 65.4343088,149.492316 71.669397,154.94189 C73.6798032,156.69902 78.1278232,159.043366 85.013457,161.974928 C85.013457,167.238199 84.4654412,169.146787 83.4363825,171.07096 C82.4073234,172.995133 80.8972214,174.505235 78.9730485,175.534294 C77.0488756,176.563353 75.1402868,177.111369 69.8770164,177.111369 L15.1364406,177.111369 C9.87317044,177.111369 7.96458149,176.563353 6.0404086,175.534294 C4.1162357,174.505235 2.60613355,172.995133 1.57707463,171.07096 C0.564349972,169.17733 0.017518524,167.298792 0,162.223038 L0,15.1364406 C0,9.87317044 0.548015704,7.96458149 1.57707463,6.0404086 C2.60613355,4.1162357 4.1162357,2.60613355 6.0404086,1.57707463 C7.93403908,0.564349972 9.81257639,0.017518524 14.8883308,0 L69.8770164,0 C75.1402868,0 77.0488756,0.548015704 78.9730485,1.57707463 Z M15.6711295,3.54222737 C10.8464652,3.54222737 9.09692532,4.0445751 7.33310016,4.98787913 C5.569275,5.93118314 4.18501471,7.31544344 3.24171069,9.0792686 C2.29840668,10.8430938 1.79605895,12.5926336 1.79605895,17.4172979 L1.79605895,158.119748 C1.79605895,162.944412 2.29840668,164.693952 3.24171069,166.457777 C4.18501471,168.221602 5.569275,169.605862 7.33310016,170.549166 C9.09692532,171.49247 10.8464652,171.994818 15.6711295,171.994818 L69.3423274,171.994818 C74.1669916,171.994818 75.9165318,171.49247 77.6803569,170.549166 C79.444182,169.605862 80.8284424,168.221602 81.7717464,166.457777 C82.7150504,164.693952 76.6344695,165.624079 76.6344695,160.799415 C68.6342821,152.615469 64.2553611,146.374319 63.4977063,142.075966 C61.6160101,131.40066 73.7634188,112.689094 75.955811,112.600318 C80.6278073,112.411136 83.2173981,109.578262 83.2173981,108.646358 C83.2173981,88.3732337 83.2173981,57.9635469 83.2173981,17.4172979 C83.2173981,12.5926336 82.7150504,10.8430938 81.7717464,9.0792686 C80.8284424,7.31544344 79.444182,5.93118314 77.6803569,4.98787913 C75.9165318,4.0445751 74.1669916,3.54222737 69.3423274,3.54222737 L15.6711295,3.54222737 Z" id="形状结合" fill="#505259"></path>
                    <path d="M15.8539848,3.54222737 L69.1812039,3.54222737 C74.078125,3.54222737 75.8538668,4.0445751 77.6441079,4.98787913 C79.434349,5.93118314 80.8393408,7.31544344 81.7967723,9.0792686 C82.7542037,10.8430938 83.2640748,12.5926336 83.2640748,17.4172979 C83.2640748,58.4585566 83.2640748,89.2395006 83.2640748,109.76013 C83.2640748,113.12088 66.6751402,119.172426 66.6751402,123.584175 C66.6751402,127.553196 63.0164912,131.920232 64.1441012,139.953637 C64.6166023,143.319865 67.7909337,148.98983 73.6670955,156.963532 C73.6670955,161.788196 82.7542037,164.693952 81.7967723,166.457777 C80.8393408,168.221602 79.434349,169.605862 77.6441079,170.549166 C75.8538668,171.49247 74.078125,171.994818 69.1812039,171.994818 L15.8539848,171.994818 C10.9570637,171.994818 9.18132182,171.49247 7.39108065,170.549166 C5.60083949,169.605862 4.19584775,168.221602 3.2384163,166.457777 C2.28098485,164.693952 1.77111369,162.944412 1.77111369,158.119748 L1.77111369,17.4172979 C1.77111369,12.5926336 2.28098485,10.8430938 3.2384163,9.0792686 C4.19584775,7.31544344 5.60083949,5.93118314 7.39108065,4.98787913 C9.18132182,4.0445751 10.9570637,3.54222737 15.8539848,3.54222737 Z" id="矩形" fill-opacity="0.1" fill="#FFFFFF"></path>
                    <path d="M42.9196262,37.928972 C51.7396652,37.928972 58.8897196,45.0790263 58.8897196,53.8990654 C58.8897196,62.7191045 51.7396652,69.8691589 42.9196262,69.8691589 C34.0995871,69.8691589 26.9495327,62.7191045 26.9495327,53.8990654 C26.9495327,45.0790263 34.0995871,37.928972 42.9196262,37.928972 Z M42.9196262,39.3548732 C34.8870906,39.3548732 28.3754339,45.8665298 28.3754339,53.8990654 C28.3754339,61.9316009 34.8870906,68.4432577 42.9196262,68.4432577 C50.9521617,68.4432577 57.4638184,61.9316009 57.4638184,53.8990654 C57.4638184,45.8665298 50.9521617,39.3548732 42.9196262,39.3548732 Z M37.5572082,59.4393186 C38.6890461,61.2973395 40.7040419,62.4544726 42.9196262,62.4544726 C45.114165,62.4544726 47.1126274,61.3193847 48.2509828,59.4897711 C48.4589933,59.1554477 48.8986417,59.0530509 49.2329649,59.2610614 C49.5672882,59.4690718 49.669685,59.9087202 49.4616746,60.2430436 C48.0656941,62.4867237 45.6120008,63.8803738 42.9196262,63.8803738 C40.2013949,63.8803738 37.7274831,62.4597031 36.3394584,60.1811268 C36.1346137,59.8448544 36.2411568,59.4061924 36.5774291,59.2013478 C36.9137015,58.9965031 37.3523635,59.1030461 37.5572082,59.4393186 Z M43.5085537,49.9284589 C43.8798864,50.0227202 44.1084625,50.3925053 44.0313118,50.7639567 L44.0241713,50.7949089 L42.837922,55.4675567 L44.2029372,55.4675567 C44.5863271,55.4675567 44.8990363,55.7701768 44.9152291,56.149581 L44.9158879,56.1805073 C44.9158879,56.5638972 44.6132678,56.8766064 44.2338636,56.8927992 L44.2029372,56.8934579 L41.9214953,56.8934579 C41.466497,56.8934579 41.1306256,56.4741198 41.2237752,56.0338312 L41.2304615,56.0050911 L42.6421037,50.4440764 C42.7389835,50.062429 43.1269064,49.8315791 43.5085537,49.9284589 Z M37.0021362,48.0528705 C37.7502645,48.0528705 38.3567423,48.6593483 38.3567423,49.4074766 C38.3567423,50.1556049 37.7502645,50.7620828 37.0021362,50.7620828 C36.2540079,50.7620828 35.64753,50.1556049 35.64753,49.4074766 C35.64753,48.6593483 36.2540079,48.0528705 37.0021362,48.0528705 Z M48.9797063,48.0528705 C49.7278346,48.0528705 50.3343124,48.6593483 50.3343124,49.4074766 C50.3343124,50.1556049 49.7278346,50.7620828 48.9797063,50.7620828 C48.231578,50.7620828 47.6251001,50.1556049 47.6251001,49.4074766 C47.6251001,48.6593483 48.231578,48.0528705 48.9797063,48.0528705 Z" id="形状结合备份-2" fill="#737580"></path>
                </g>
                <g id="手表" transform="translate(61.884112, 94.822430)">
                    <path d="M37.4271633,0 C38.4562145,0 39.3570697,0.68307597 39.638259,1.66748482 L39.6553611,1.73072499 L42.7281085,13.7634719 C44.0782031,17.6660048 45.7371201,20.9872529 47.704859,23.7272167 C51.847835,28.4973885 54.3616352,34.7207005 54.3616352,41.5342916 C54.3616352,48.2689285 51.9061205,54.4264449 47.8486927,59.1740584 C47.8430522,59.1815779 47.8421121,59.1881573 47.8364716,59.1956768 C45.6792619,62.1919534 43.8816679,65.8402113 42.4436893,70.1404504 L42.4311841,70.1756058 L39.6553611,81.0453659 L39.638259,81.1086061 C39.3570697,82.0930149 38.4562145,82.7760908 37.4271633,82.7760908 L37.4271633,82.7760908 L16.9729582,82.7760908 L16.9074525,82.7751668 C15.8840759,82.7462723 14.9993532,82.0424198 14.7447583,81.0453569 L14.7447583,81.0453569 L12.0213095,70.3796254 C11.9806378,70.3038342 11.9459695,70.2238826 11.918027,70.1402913 C10.5105411,65.9297082 8.75801826,62.3442081 6.66045912,59.3837906 L6.52610367,59.1956768 L6.51294252,59.1740584 C2.45551471,54.4264449 0,48.2689285 0,41.5342916 C0,34.7207005 2.51380021,28.4973885 6.65677616,23.7272167 C8.69919394,20.8832668 10.4091531,17.4130737 11.7866538,13.3166376 L14.7447583,1.73073389 C14.9993532,0.733670928 15.8840759,0.0298184463 16.9074525,0.000923993834 L16.9729582,0 L37.4271633,0 Z M27.1808175,17.170357 C13.7066249,17.170357 2.78301888,28.0984846 2.78301888,41.5795731 C2.78301888,47.6987819 5.03366195,53.292212 8.75189165,57.5764063 L8.72045254,57.4514677 C13.1950507,62.6704989 19.8347993,65.9769849 27.2464408,65.9769849 C28.7751085,65.9769849 30.2709397,65.8363269 31.7217103,65.5672416 C31.7546861,65.5616011 31.7875409,65.5553427 31.8203722,65.5490186 L31.7217103,65.5672416 C31.7914842,65.5543001 31.8611538,65.5410616 31.930718,65.5275273 L31.8203722,65.5490186 C43.0758403,63.3809099 51.5786163,53.4734193 51.5786163,41.5795731 C51.5786163,28.0984846 40.6550103,17.170357 27.1808175,17.170357 Z" id="形状结合" fill="#505259"></path>
                    <path d="M27.1491589,18.2428374 C33.6193887,18.2428374 39.4772233,20.8653935 43.7174717,25.105549 C47.9576366,29.345621 50.5802804,35.2032259 50.5802804,41.6734693 C50.5802804,48.1437643 47.9575902,54.0016678 43.7173554,58.2419954 C39.4771121,62.4823316 33.6193241,65.1050804 27.1491589,65.1050804 C20.6789937,65.1050804 14.8212056,62.4823316 10.5809623,58.2419954 C6.34072753,54.0016678 3.71803738,48.1437643 3.71803738,41.6734693 C3.71803738,35.2032259 6.34068119,29.345621 10.580846,25.105549 C14.8210945,20.8653935 20.678929,18.2428374 27.1491589,18.2428374 Z" id="路径" stroke="#FFFFFF" stroke-width="2.14598131" fill="#FFFFFF" opacity="0.2"></path>
                    <path d="M27.1491589,19.315828 C39.4969025,19.315828 49.5072897,29.3254553 49.5072897,41.6734693 C49.5072897,54.0214833 39.4969025,64.0320897 27.1491589,64.0320897 C14.8014153,64.0320897 4.79102804,54.0214833 4.79102804,41.6734693 C4.79102804,29.3254553 14.8014153,19.315828 27.1491589,19.315828 Z M26.8365792,29.6249403 L14.7503573,33.0966656 L14.7503573,40.2130329 C14.7503573,47.6981468 19.6174783,54.3431633 26.8325407,56.7086795 L26.8325407,56.7086795 L27.1797182,56.5908928 C34.2013133,54.1285966 38.9112013,47.5789041 38.9112013,40.2163224 L38.9112013,40.2163224 L38.9112013,33.0966656 L26.8365792,29.6249403 Z" id="形状结合" fill="#737580" opacity="0.6"></path>
                    <path d="M14.7503573,33.0966656 L26.8365792,29.6249403 L38.9112013,33.0966656 L38.9112013,40.2163224 C38.9112013,47.6996022 34.045625,54.3431221 26.8325407,56.7086795 L26.8325407,56.7086795 C19.6174783,54.3431633 14.7503573,47.6981468 14.7503573,40.2130329 L14.7503573,33.0966656 Z" id="路径" fill="#FFFFFF" opacity="0.5"></path>
                    <path d="M49.3253255,51.975264 L52.1003723,51.9757828 C52.5236274,51.9761319 52.8667244,52.3192292 52.8670735,52.7424841 L52.8680879,58.4273803 C52.8684368,58.8507422 52.5252954,59.1940062 52.1019335,59.1940816 C52.1018425,59.1940816 52.1017512,59.1940816 52.1016601,59.1938081 L49.3266131,59.193313 C49.2898083,59.1932827 49.2599737,59.1634481 49.2599434,59.1266433 L49.2586794,52.0419335 C49.2586794,52.0051196 49.2884876,51.975264 49.3253016,51.975264 C49.3253096,51.975264 49.3253175,51.975264 49.3253255,51.975264 Z" id="矩形备份-12" fill="#505259" transform="translate(51.063384, 55.584673) rotate(30.000000) translate(-51.063384, -55.584673) "></path>
                    <path d="M49.6036273,25.1523363 L52.3786743,25.1528553 C52.8019292,25.1532044 53.1450265,25.4963016 53.1453756,25.9195565 L53.14639,31.6044528 C53.1467388,32.0278146 52.8035974,32.3710784 52.3802356,32.371154 C52.3801443,32.371154 52.3800532,32.371154 52.3799619,32.3708806 L49.6049152,32.3703853 C49.5681104,32.3703549 49.5382758,32.3405205 49.5382454,32.3037158 L49.5369815,25.219006 C49.5369815,25.182192 49.5667895,25.1523363 49.6036036,25.1523363 C49.6036115,25.1523363 49.6036195,25.1523363 49.6036273,25.1523363 Z" id="矩形备份-13" fill="#505259" transform="translate(51.341686, 28.761745) scale(-1, 1) rotate(-150.000000) translate(-51.341686, -28.761745) "></path>
                    <path d="M27.1012485,14.5716003 C42.068855,14.5716003 54.2024972,26.7052747 54.2024972,41.6729204 C54.2024972,56.6405663 42.068855,68.7742407 27.1012485,68.7742407 C12.1336422,68.7742407 0,56.6405663 0,41.6729204 C0,26.7052747 12.1336422,14.5716003 27.1012485,14.5716003 Z M27.1475754,17.170357 C13.6895227,17.170357 2.77961526,28.0989747 2.77961526,41.5801077 C2.77961526,55.0612408 13.6895227,65.9898585 27.1475754,65.9898585 C40.6056284,65.9898585 51.5155358,55.0612408 51.5155358,41.5801077 C51.5155358,28.0989747 40.6056284,17.170357 27.1475754,17.170357 Z" id="形状结合" fill="#737580"></path>
                </g>
            </g>
        </g>
    </g>
</svg>